<mxfile host="app.diagrams.net" modified="2023-06-09T00:50:19.653Z" agent="Mozilla/5.0 (Windows NT 10.0; Win64; x64) AppleWebKit/537.36 (KHTML, like Gecko) Chrome/113.0.0.0 Safari/537.36 Edg/113.0.1774.42" etag="863qM0fmcp0Okisdo1p6" version="21.3.7" type="device">
  <diagram name="ページ1" id="D5p3RVC4t98DR3PqROP9">
    <mxGraphModel dx="1178" dy="786" grid="1" gridSize="10" guides="1" tooltips="1" connect="1" arrows="1" fold="1" page="1" pageScale="1" pageWidth="1169" pageHeight="827" math="0" shadow="0">
      <root>
        <mxCell id="0" />
        <mxCell id="1" parent="0" />
        <mxCell id="StKes1Bay4Hae8yV6QAt-1" value="開始" style="strokeWidth=2;shape=mxgraph.flowchart.terminator;fontSize=16;fontFamily=BIZ UDPGothic;" parent="1" vertex="1">
          <mxGeometry x="40" y="100" width="80" height="40" as="geometry" />
        </mxCell>
        <mxCell id="StKes1Bay4Hae8yV6QAt-2" value="終了" style="strokeWidth=2;shape=mxgraph.flowchart.terminator;fontSize=16;fontFamily=BIZ UDPGothic;" parent="1" vertex="1">
          <mxGeometry x="40" y="150" width="80" height="40" as="geometry" />
        </mxCell>
        <mxCell id="StKes1Bay4Hae8yV6QAt-3" value="変数xに入力する" style="rounded=1;absoluteArcSize=1;arcSize=14;strokeWidth=2;fontSize=16;fontFamily=BIZ UDPGothic;" parent="1" vertex="1">
          <mxGeometry x="130" y="100" width="200" height="40" as="geometry" />
        </mxCell>
        <mxCell id="9aM1dBj8owvEj4xOFZrg-10" value="素因数分解" style="text;html=1;strokeColor=none;fillColor=none;align=left;verticalAlign=middle;whiteSpace=wrap;rounded=0;fontSize=20;fontFamily=BIZ UDPGothic;" parent="1" vertex="1">
          <mxGeometry x="40" y="40" width="480" height="40" as="geometry" />
        </mxCell>
        <mxCell id="D7fSjAbkDVPHjdvhgrvn-4" value="x&gt;1" style="strokeWidth=2;shape=mxgraph.flowchart.loop_limit;fontSize=16;fontFamily=BIZ UDPGothic;" parent="1" vertex="1">
          <mxGeometry x="350" y="100" width="160" height="40" as="geometry" />
        </mxCell>
        <mxCell id="D7fSjAbkDVPHjdvhgrvn-5" value="" style="strokeWidth=2;shape=mxgraph.flowchart.loop_limit;direction=west;fontSize=16;fontFamily=BIZ UDPGothic;" parent="1" vertex="1">
          <mxGeometry x="350" y="150" width="160" height="40" as="geometry" />
        </mxCell>
        <mxCell id="D7fSjAbkDVPHjdvhgrvn-7" value="変数ｙに、     を入れる" style="rounded=1;absoluteArcSize=1;arcSize=14;strokeWidth=2;fontSize=16;fontFamily=BIZ UDPGothic;" parent="1" vertex="1">
          <mxGeometry x="130" y="150" width="200" height="40" as="geometry" />
        </mxCell>
        <mxCell id="D7fSjAbkDVPHjdvhgrvn-8" value="変数xに、x÷yを入れる" style="rounded=1;absoluteArcSize=1;arcSize=14;strokeWidth=2;fontSize=16;fontFamily=BIZ UDPGothic;" parent="1" vertex="1">
          <mxGeometry x="130" y="200" width="200" height="40" as="geometry" />
        </mxCell>
        <mxCell id="D7fSjAbkDVPHjdvhgrvn-10" value="変数yの値を出力" style="rounded=1;absoluteArcSize=1;arcSize=14;strokeWidth=2;fontSize=16;fontFamily=BIZ UDPGothic;" parent="1" vertex="1">
          <mxGeometry x="130" y="250" width="200" height="40" as="geometry" />
        </mxCell>
        <mxCell id="oB7toInIq-sxRmjbgL9F-1" value="x÷yの余りが0" style="strokeWidth=2;shape=mxgraph.flowchart.loop_limit;fontSize=16;fontFamily=BIZ UDPGothic;" vertex="1" parent="1">
          <mxGeometry x="350" y="200" width="160" height="40" as="geometry" />
        </mxCell>
        <mxCell id="oB7toInIq-sxRmjbgL9F-2" value="" style="strokeWidth=2;shape=mxgraph.flowchart.loop_limit;direction=west;fontSize=16;fontFamily=BIZ UDPGothic;" vertex="1" parent="1">
          <mxGeometry x="350" y="250" width="160" height="40" as="geometry" />
        </mxCell>
      </root>
    </mxGraphModel>
  </diagram>
</mxfile>
